# xmcd
#
# Track frame offsets: 
#        150
#        14633
#        31691
#        46321
#        66698
#        87443
#        107811
#        125736
#        141988
#        163740
#        178562
#        196650
#        212351
#        229091
#
# Disc length: 3306 seconds
#
# Revision: 0
# Processed by: cddbd v1.5.2PL0 Copyright (c) Steve Scherf et al.
# Submitted via: ExactAudioCopyFreeDBPlugin 1.0
#
DISCID=c60ce80e
DTITLE=Kenny Wayne Shepherd Band - Live On
DYEAR=1999
DGENRE=Blues
TTITLE0=1. In 2 Deep 3:15
TTITLE1=2. Was 4:00
TTITLE2=3. Them Changes 3:19
TTITLE3=4. Last Goodbye 4:33
TTITLE4=5. Shotgun Blues 4:49
TTITLE5=6. Never Mind 3:58
TTITLE6=7. You Should Know Better 4:12
TTITLE7=8. Every Time It Rains 3:46
TTITLE8=9. Oh Well 3:37
TTITLE9=10. Wild Love 3:42
TTITLE10=11. Losing Kind 4:31
TTITLE11=12. Live On 4:35
TTITLE12=13. Where Was I? 3:30
TTITLE13=14. Electric Lullaby
EXTD=1.\tIn 2 Deep\t3:15\n2.\tWas\t4:00\n3.\tThem Changes\t3:19\n4.\tL
EXTD=ast Goodbye\t4:33\n5.\tShotgun Blues\t4:49\n6.\tNever Mind\t3:58\n
EXTD=7.\tYou Should Know Better\t4:12\n8.\tEvery Time It Rains\t3:46\n
EXTD=9.\tOh Well\t3:37\n10.\tWild Love\t3:42\n11.\tLosing Kind\t4:31\n
EXTD=12.\tLive On\t4:35\n13.\tWhere Was I?\t3:30\n14.\tElectric Lullab
EXTD=y
EXTT0=
EXTT1=
EXTT2=
EXTT3=
EXTT4=
EXTT5=
EXTT6=
EXTT7=
EXTT8=
EXTT9=
EXTT10=
EXTT11=
EXTT12=
EXTT13=
PLAYORDER=
